<svg xmlns="http://www.w3.org/2000/svg" width="57" height="32" viewBox="0 0 57 32" fill="none">
<path fill-rule="evenodd" clip-rule="evenodd" d="M47.3674 1.81811C48.9323 2.60627 49.0191 6.52259 47.5579 10.4197C46.5288 13.1641 44.9878 14.3333 43.2231 13.7084C42.9391 13.6078 42.5349 13.398 42.3249 13.2421C42.1148 13.0861 41.919 12.983 41.8898 13.0129C41.8103 13.0944 41.4081 15.9349 41.4678 15.9947C41.4961 16.0231 42.3667 15.9323 43.4026 15.7929C49.6789 14.9482 52.6184 14.7396 53.2947 15.0907C53.7114 15.3069 53.8089 15.5104 53.8089 16.1635C53.8089 17.0284 53.4952 17.1375 49.7683 17.5697C47.4375 17.84 42.0277 18.5416 41.3519 18.6611C41.0132 18.721 40.9404 18.8005 40.8676 19.1907C40.734 19.9054 40.4515 20.3469 39.9849 20.5703C39.5891 20.7598 39.5322 20.7594 39.2389 20.5665C38.9135 20.3525 38.6882 19.646 38.8285 19.2793C38.8847 19.132 38.8029 19.0881 38.4726 19.0881C37.7551 19.0881 30.6074 20.4714 28.2188 21.0726L27.44 21.2685L27.2289 21.9212C25.9927 25.743 24.5006 28.4203 22.6536 30.1311C21.6462 31.064 20.8908 31.4264 19.8232 31.4885C18.752 31.5507 18.2182 31.3698 17.5787 30.7279C17.0337 30.1809 16.6866 29.3029 16.6866 28.4716C16.6866 27.4852 17.3449 25.6215 18.143 24.3484C19.3765 22.3808 21.8968 20.3067 24.226 19.3426C24.7669 19.1187 25.2572 18.8906 25.3154 18.8358C25.3932 18.7626 26.9075 14.352 26.9133 14.1819C26.9138 14.1674 26.6599 14.4285 26.349 14.7621C25.1095 16.0924 23.6065 16.4617 22.6964 15.6594C22.4551 15.4469 22.1881 15.0618 22.103 14.8038C21.7354 13.6906 22.1281 11.4211 23.1844 8.5532C23.5659 7.51774 23.7575 6.79626 23.7575 6.39635C23.7575 5.6466 23.9272 5.18115 24.2238 5.11778C24.6144 5.03412 25.2836 5.23794 25.6007 5.53696C26.0601 5.97033 25.996 6.67369 25.2828 9.01965C24.3896 11.9581 24.3177 12.7651 24.9287 12.992C25.6339 13.2539 26.4955 12.4505 27.2946 10.7857C27.5623 10.228 28.1644 8.6309 28.6327 7.2366C29.3982 4.95693 29.5359 4.64866 29.999 4.17726C30.5985 3.56694 31.4122 3.26032 31.9388 3.44614C32.1253 3.51205 32.2973 3.66657 32.3209 3.78952C32.3608 3.99765 31.6964 6.46112 29.3655 14.7476C28.8506 16.578 28.4294 18.0931 28.4294 18.1144C28.4294 18.1357 29.4096 17.9675 30.6075 17.7406C31.8055 17.5137 34.2622 17.1076 36.0672 16.8381L39.3487 16.3482L39.492 15.7006C39.5707 15.3444 39.6741 14.7923 39.7218 14.4736L39.8083 13.8941L39.1669 14.2175C38.4702 14.5688 37.7219 14.6421 37.2763 14.4027C37.121 14.3193 36.8921 14.0227 36.7676 13.7434L36.5412 13.2358L36.2417 13.7794C35.6355 14.8796 34.446 15.454 33.3737 15.1642C32.1736 14.8397 31.7108 14.0088 31.6147 12.0051C31.5407 10.465 31.7099 9.34288 32.2478 7.807C33.142 5.25315 34.1846 3.78204 35.6157 3.05472C36.189 2.76319 37.2637 2.84583 37.768 3.22001L38.1338 3.49152L38.3638 3.01911C38.6126 2.50803 38.8281 2.41601 39.4862 2.53998C40.0455 2.64531 40.2984 2.91694 40.2984 3.41243C40.2984 3.63463 40.0121 5.12589 39.6622 6.72629C38.6219 11.485 38.653 12.2295 39.8606 11.4803C40.0876 11.3395 40.3017 11.15 40.3364 11.0594C40.371 10.9688 40.7519 9.04475 41.1827 6.78396C41.6137 4.52317 42.0516 2.53782 42.1557 2.37215C42.3266 2.10077 42.408 2.07834 42.9767 2.14602C43.8305 2.24755 44.0039 2.41119 43.9062 3.02405L43.8283 3.5137L44.3702 2.84013C45.2762 1.71392 46.3999 1.33074 47.3674 1.81811ZM43.9847 5.87121C44.2133 5.37357 44.5842 4.82548 44.8648 4.57096C45.1426 4.31897 45.483 4.13112 45.6618 4.13112C47.1457 4.13112 46.0192 10.1915 44.3264 11.3161C43.8429 11.6373 43.3529 11.7148 42.8401 11.5514C42.5622 11.463 42.5478 11.413 42.6273 10.812C42.7785 9.6675 43.5784 6.7562 43.9847 5.87121ZM33.9265 10.284C33.9351 8.16356 34.9891 6.00443 36.3749 5.269C37.5291 4.65652 37.941 5.0975 37.5868 6.56658C37.2393 8.00765 36.2894 10.86 35.9744 11.4076C35.5558 12.1355 35.0851 12.4519 34.6899 12.2712C34.098 12.0004 33.9214 11.541 33.9265 10.284ZM19.3303 28.9043C18.2847 27.9544 20.6445 24.2729 23.3392 22.6498C23.8123 22.3647 24.2482 22.1312 24.3078 22.1308C24.4797 22.1298 24.2879 22.7369 23.7271 23.9681C22.1783 27.3695 20.1487 29.6479 19.3303 28.9043Z" fill="#5F0B72"/>
<path fill-rule="evenodd" clip-rule="evenodd" d="M55.7667 0.836018C56.4434 1.25583 56.7594 1.97731 56.6751 2.9101C56.5795 3.96926 55.7804 5.55584 54.9127 6.40928C54.1637 7.14585 52.8173 7.87735 51.9779 8.00372C51.4622 8.08142 51.403 8.12806 51.2863 8.5499C51.0402 9.43908 51.1717 10.3473 51.5866 10.6254C51.663 10.6766 51.9604 10.7193 52.2477 10.7204C52.8874 10.7227 54.0816 9.97221 54.7882 9.12372C55.4066 8.38094 55.755 8.37625 56.0851 9.10623C56.5198 10.0677 56.4495 10.2848 55.3556 11.357C53.0173 13.6492 50.4445 14.0226 49.3515 12.2284C47.6063 9.36328 50.2209 1.81659 53.3634 0.648929C54.059 0.390351 55.1906 0.478445 55.7667 0.836018ZM52.801 3.87394C53.0223 3.52777 53.3725 3.10175 53.5789 2.92734C54.0186 2.55595 54.2187 2.53263 54.5047 2.81972C54.9526 3.26932 54.4332 4.46829 53.4711 5.20575C52.9246 5.62454 52.0871 5.99416 51.9641 5.87057C51.8617 5.76778 52.3781 4.53559 52.801 3.87394Z" fill="#5F0B72"/>
<path fill-rule="evenodd" clip-rule="evenodd" d="M12.0117 5.41996C13.4531 5.83495 14.5979 6.52285 15.7173 7.64653C16.863 8.79669 17.1224 9.14147 17.5816 10.1256C18.1341 11.3092 18.3479 12.3442 18.3533 13.8613C18.3588 15.3571 18.0988 16.504 17.4732 17.743C16.3376 19.9928 14.2144 21.7193 11.7352 22.409C10.4816 22.7577 8.5101 22.7635 7.20161 22.4224C6.11471 22.1391 6.13276 22.1335 4.5389 23.241C3.42814 24.0129 3.17863 24.1199 2.94454 23.9249C2.72067 23.7384 2.72572 23.2051 2.96575 21.708C3.0727 21.0405 3.12219 20.3743 3.07573 20.2274C3.02939 20.0805 2.7665 19.6747 2.49162 19.3257C1.85473 18.5168 1.35762 17.5264 0.987157 16.3286C0.614671 15.124 0.586387 13.0275 0.925917 11.7809C2.04577 7.66858 5.7878 4.91129 9.96835 5.11778C10.6281 5.15035 11.5476 5.28636 12.0117 5.41996ZM5.23438 11.7677C5.40521 11.3874 5.61216 11.1907 6.09703 10.9482C7.12799 10.4325 8.52374 10.5707 9.372 11.2726C9.88817 11.6997 10.2157 12.7002 9.98237 13.1378C9.66721 13.7291 8.83196 13.422 8.83196 12.7148C8.83196 11.7715 7.1607 11.2927 6.42974 12.0265C5.80056 12.6581 6.26698 13.2262 8.01981 13.9637C8.64003 14.2246 9.29876 14.5721 9.48336 14.7358C10.8315 15.9309 10.2055 17.8766 8.35984 18.2281C7.58394 18.3758 6.61788 18.2394 6.03996 17.9006C5.24271 17.4331 4.65873 16.1928 4.91606 15.5134C5.02364 15.2295 5.10874 15.1824 5.45421 15.2159C5.83187 15.2524 5.87707 15.3057 6.01887 15.8828C6.10372 16.2278 6.31812 16.6556 6.49527 16.8334C6.77975 17.1191 6.92155 17.1569 7.70856 17.1569C8.67387 17.1569 8.95822 16.9797 8.95822 16.3781C8.95822 15.7924 8.68372 15.4695 7.83748 15.06C5.87732 14.1112 5.63691 13.9707 5.39688 13.6335C5.02907 13.1167 4.96391 12.3696 5.23438 11.7677ZM11.7671 15.2945C12.4223 14.0879 13.2554 12.5446 13.6185 11.8649C14.2201 10.7386 14.311 10.6291 14.6444 10.6291C15.1406 10.6291 15.3508 11.0162 15.1116 11.4893C14.952 11.8047 12.6442 16.0937 11.8746 17.5047C11.5352 18.1271 11.2897 18.2977 10.932 18.1598C10.4247 17.9643 10.5491 17.5375 11.7671 15.2945Z" fill="#01D0B5"/>
</svg>