<svg xmlns="http://www.w3.org/2000/svg" width="25" height="15" viewBox="0 0 25 15" fill="none">
<g clip-path="url(#clip0)">
<g clip-path="url(#clip1)">
<path d="M23.2326 14.4309H1.72644C1.13502 14.4309 0.651123 13.947 0.651123 13.3556V1.52722C0.651123 0.935805 1.13502 0.451904 1.72644 0.451904H23.2326C23.824 0.451904 24.3079 0.935805 24.3079 1.52722V13.3556C24.3079 13.947 23.824 14.4309 23.2326 14.4309Z" fill="#0E9347"/>
<path d="M21.0821 13.3557H3.87716C3.87716 12.1729 2.9094 11.2051 1.72656 11.2051V3.67794C2.9094 3.67794 3.87716 2.71018 3.87716 1.52734H21.0821C21.0821 2.71018 22.0498 3.67794 23.2327 3.67794V11.2051C22.0498 11.2051 21.0821 12.1729 21.0821 13.3557Z" fill="#3BB54A"/>
<path d="M12.4795 12.2805C14.855 12.2805 16.7807 10.1141 16.7807 7.44165C16.7807 4.76922 14.855 2.60278 12.4795 2.60278C10.104 2.60278 8.17822 4.76922 8.17822 7.44165C8.17822 10.1141 10.104 12.2805 12.4795 12.2805Z" fill="#0E9347"/>
<path d="M6.02771 8.51708C6.6216 8.51708 7.10303 8.03565 7.10303 7.44177C7.10303 6.84789 6.6216 6.36646 6.02771 6.36646C5.43383 6.36646 4.95239 6.84789 4.95239 7.44177C4.95239 8.03565 5.43383 8.51708 6.02771 8.51708Z" fill="#0E9347"/>
<path d="M18.9313 8.51708C19.5252 8.51708 20.0066 8.03565 20.0066 7.44177C20.0066 6.84789 19.5252 6.36646 18.9313 6.36646C18.3374 6.36646 17.856 6.84789 17.856 7.44177C17.856 8.03565 18.3374 8.51708 18.9313 8.51708Z" fill="#0E9347"/>
<path d="M13.0171 6.90401H11.9418C11.6192 6.90401 11.4041 6.68892 11.4041 6.36637C11.4041 6.04377 11.6192 5.82873 11.9418 5.82873H13.5547C13.8773 5.82873 14.0923 5.61365 14.0923 5.29109C14.0923 4.96849 13.8773 4.75346 13.5547 4.75346H13.0171C13.0171 4.43086 12.802 4.21582 12.4794 4.21582C12.1568 4.21582 11.9418 4.4309 11.9418 4.75346C11.0278 4.75346 10.3289 5.45239 10.3289 6.36641C10.3289 7.28043 11.0278 7.97937 11.9418 7.97937H13.0171C13.3397 7.97937 13.5548 8.19445 13.5548 8.51701C13.5548 8.83961 13.3397 9.05465 13.0171 9.05465H11.4042C11.0816 9.05465 10.8665 9.26973 10.8665 9.59228C10.8665 9.91488 11.0816 10.1299 11.4042 10.1299H11.9418C11.9418 10.4525 12.1569 10.6676 12.4794 10.6676C12.802 10.6676 13.0171 10.4525 13.0171 10.1299C13.9311 10.1299 14.63 9.43098 14.63 8.51696C14.63 7.60294 13.9311 6.90401 13.0171 6.90401Z" fill="#89C763"/>
</g>
</g>
<defs>
<clipPath id="clip0">
<rect width="23.6568" height="14" fill="white" transform="translate(0.651123 0.439453)"/>
</clipPath>
<clipPath id="clip1">
<rect width="23.6568" height="14" fill="white" transform="translate(0.651123 0.439453)"/>
</clipPath>
</defs>
</svg>